<svg width="25" height="24" viewBox="0 0 25 24" fill="none" xmlns="http://www.w3.org/2000/svg">
<g id="profile">
<path id="icon" fill-rule="evenodd" clip-rule="evenodd" d="M12.6667 2C7.14666 2 2.66666 6.48 2.66666 12C2.66666 17.52 7.14666 22 12.6667 22C18.1867 22 22.6667 17.52 22.6667 12C22.6667 6.48 18.1867 2 12.6667 2ZM19.0267 16.83C17.5967 15.09 14.1267 14.5 12.6667 14.5C11.2067 14.5 7.73666 15.09 6.30666 16.83C5.28666 15.49 4.66666 13.82 4.66666 12C4.66666 7.59 8.25666 4 12.6667 4C17.0767 4 20.6667 7.59 20.6667 12C20.6667 13.82 20.0467 15.49 19.0267 16.83ZM9.16666 9.5C9.16666 7.56 10.7267 6 12.6667 6C14.6067 6 16.1667 7.56 16.1667 9.5C16.1667 11.44 14.6067 13 12.6667 13C10.7267 13 9.16666 11.44 9.16666 9.5Z" fill="#1C1C1C"/>
</g>
</svg>
