<svg width="400" height="400" viewBox="0 0 400 400" fill="none" xmlns="http://www.w3.org/2000/svg">
  <g clip-path="url(#clip0_442_9822)">
  <rect width="400" height="400" rx="100" fill="black"/>
  <rect x="-3" y="-39" width="250" height="378" rx="48" fill="black"/>
  <path d="M171.464 145.072C184.776 153.52 193.48 167.344 193.48 185.52C193.48 217.264 167.624 238 135.624 238H60.36V58.8H130.504C161.736 58.8 187.08 79.024 187.08 110C187.08 124.848 181.192 136.624 171.464 145.072ZM130.504 97.2H101.32V128.944H130.504C139.72 128.944 146.12 122.288 146.12 113.072C146.12 103.856 139.976 97.2 130.504 97.2ZM135.624 199.6C145.864 199.6 152.52 192.432 152.52 182.448C152.52 172.464 145.864 165.296 135.624 165.296H101.32V199.6H135.624Z" fill="#FCD844"/>
  <path d="M325.464 250.072C338.776 258.52 347.48 272.344 347.48 290.52C347.48 322.264 321.624 343 289.624 343H214.36V163.8H284.504C315.736 163.8 341.08 184.024 341.08 215C341.08 229.848 335.192 241.624 325.464 250.072ZM284.504 202.2H255.32V233.944H284.504C293.72 233.944 300.12 227.288 300.12 218.072C300.12 208.856 293.976 202.2 284.504 202.2ZM289.624 304.6C299.864 304.6 306.52 297.432 306.52 287.448C306.52 277.464 299.864 270.296 289.624 270.296H255.32V304.6H289.624Z" fill="#FCD844"/>
  </g>
  <defs>
  <clipPath id="clip0_442_9822">
  <rect width="400" height="400" rx="100" fill="white"/>
  </clipPath>
  </defs>
  </svg>
  